# Blender 4.2.0 Alpha
# www.blender.org
mtllib TestQuads.mtl
o Plane
v -1.000000 0.000000 1.000000
v 1.000000 0.000000 1.000000
v -1.000000 0.000000 -1.000000
v 1.000000 0.000000 -1.000000
v 0.000000 0.000000 1.000000
v 0.000000 0.406312 -1.000000
v -1.000000 0.000000 0.000000
v 1.000000 0.000000 0.000000
v 0.000000 0.000000 0.000000
vn -0.0000 1.0000 -0.0000
vn -0.3523 0.8671 0.3523
vn 0.3523 0.8671 0.3523
vt 0.500000 0.500000
vt 1.000000 0.500000
vt 1.000000 1.000000
vt 0.000000 0.500000
vt 0.000000 1.000000
vt 0.500000 0.000000
vt 0.000000 0.000000
vt 1.000000 0.000000
vt 0.500000 1.000000
s 0
usemtl Material
f 9/1/1 8/2/1 4/3/1
f 7/4/1 9/1/1 3/5/1
f 5/6/1 7/4/1 1/7/1
f 2/8/1 9/1/1 5/6/1
f 3/5/2 9/1/2 6/9/2
f 4/3/3 6/9/3 9/1/3
f 5/6/1 9/1/1 7/4/1
f 2/8/1 8/2/1 9/1/1
o Plane.001
v 1.370280 0.000000 1.000000
v 3.370280 0.000000 1.000000
v 1.370280 0.000000 -1.000000
v 3.370280 0.000000 -1.000000
vn -0.0000 1.0000 -0.0000
vt 1.000000 0.000000
vt 0.000000 1.000000
vt 0.000000 0.000000
vt 1.000000 1.000000
s 0
f 11/10/4 12/11/4 10/12/4
f 11/10/4 13/13/4 12/11/4
o Plane.002
v -3.252523 0.000000 1.000000
v -1.252523 0.000000 1.000000
v -3.252523 0.000000 -1.000000
v -1.252523 0.000000 -1.000000
vn -0.0000 1.0000 -0.0000
vt 1.000000 0.000000
vt 0.000000 1.000000
vt 0.000000 0.000000
vt 1.000000 1.000000
s 0
usemtl Material.001
f 15/14/5 16/15/5 14/16/5
usemtl Material.002
f 15/14/5 17/17/5 16/15/5
